<svg width="100" height="24" xmlns="http://www.w3.org/2000/svg"><path fill="none" d="M-1-1H99v15H-1z"/><g><path d="M.333 2.845a2.832 5.117 0 002.044 3.656H5.57l.163.116v14.548h1.991V6.638l.182-.116h3.194a2.867 5.18 0 002.044-3.656V2.83H.333v.016zm69.671-.021H68.02v18.384h9.092a2.826 5.106 0 001.735-3.62h-8.848l.006-14.764zm-15.28 3.619c1.058-.528 1.945-2.015 2.158-3.63l-11.124.032v10.84h9.1V17.5h-7.141a3.971 7.174 0 00-2.543 3.693H56.82V10.077h-9.098V6.443h7.002zm33.92 14.754h1.974v-7.396h7.177v7.396h1.971V10.109l-11.121-.021v11.11zM25.255 6.485h7.592a2.794 5.048 0 002.059-3.693h-11.71a2.806 5.07 0 002.06 3.693zm0 7.264h7.592a2.8 5.059 0 002.059-3.693h-11.71a2.812 5.08 0 002.06 3.693zm0 7.459h7.592a2.8 5.059 0 002.059-3.693h-11.71a2.809 5.075 0 002.06 3.693zM90.4 6.495h7.592a2.797 5.053 0 002.061-3.692H88.341a2.8 5.059 0 002.058 3.692z" class="tds-icon-fill--primary" stroke="null"/></g></svg>